<svg  viewBox="0 0 32 32" fill="currentColor" xmlns="http://www.w3.org/2000/svg">
<path d="M29 18C28.9977 20.121 28.1541 22.1545 26.6543 23.6543C25.1545 25.1541 23.121 25.9977 21 26H9.99999C9.73478 26 9.48042 25.8947 9.29289 25.7071C9.10535 25.5196 8.99999 25.2652 8.99999 25C8.99999 24.7348 9.10535 24.4804 9.29289 24.2929C9.48042 24.1054 9.73478 24 9.99999 24H21C22.5913 24 24.1174 23.3679 25.2426 22.2426C26.3679 21.1174 27 19.5913 27 18C27 16.4087 26.3679 14.8826 25.2426 13.7574C24.1174 12.6321 22.5913 12 21 12H6.41374L10.7075 16.2925C10.8951 16.4801 11.0005 16.7346 11.0005 17C11.0005 17.2654 10.8951 17.5199 10.7075 17.7075C10.5199 17.8951 10.2654 18.0006 9.99999 18.0006C9.73463 18.0006 9.48013 17.8951 9.29249 17.7075L3.29249 11.7075C3.19952 11.6146 3.12576 11.5043 3.07543 11.3829C3.02511 11.2615 2.99921 11.1314 2.99921 11C2.99921 10.8686 3.02511 10.7385 3.07543 10.6171C3.12576 10.4957 3.19952 10.3854 3.29249 10.2925L9.29249 4.29251C9.48013 4.10487 9.73463 3.99945 9.99999 3.99945C10.2654 3.99945 10.5199 4.10487 10.7075 4.29251C10.8951 4.48015 11.0005 4.73464 11.0005 5.00001C11.0005 5.26537 10.8951 5.51987 10.7075 5.70751L6.41374 10H21C23.121 10.0023 25.1545 10.8459 26.6543 12.3457C28.1541 13.8455 28.9977 15.879 29 18Z" />
</svg>
