<svg  viewBox="0 0 32 32" fill="none" xmlns="http://www.w3.org/2000/svg">
<path d="M27.4138 13.585L17.4138 3.58496C17.0387 3.21017 16.5302 2.99963 16 2.99963C15.4698 2.99963 14.9613 3.21017 14.5863 3.58496L4.58626 13.585C4.39964 13.7702 4.25171 13.9907 4.15107 14.2336C4.05042 14.4765 3.99908 14.737 4.00001 15V27C4.00001 27.2652 4.10537 27.5195 4.29291 27.7071C4.48044 27.8946 4.7348 28 5.00001 28H27C27.2652 28 27.5196 27.8946 27.7071 27.7071C27.8947 27.5195 28 27.2652 28 27V15C28.0009 14.737 27.9496 14.4765 27.849 14.2336C27.7483 13.9907 27.6004 13.7702 27.4138 13.585ZM26 26H6.00001V15L16 4.99996L26 15V26Z" fill="#343330"/>
</svg>
