<svg viewBox="0 0 32 32" fill="currentColor" xmlns="http://www.w3.org/2000/svg">
<path d="M28.04 14.28C28.5073 13.1361 28.6635 11.8888 28.4926 10.665C28.3218 9.44117 27.83 8.28437 27.0673 7.31214C26.3046 6.33992 25.2981 5.58692 24.1501 5.12967C23.0021 4.67241 21.7535 4.5272 20.5312 4.70878C19.7738 3.73305 18.7716 2.97514 17.6265 2.512C16.4813 2.04886 15.234 1.89699 14.0112 2.0718C12.7884 2.24661 11.6336 2.74189 10.6642 3.50734C9.69467 4.27279 8.94499 5.28115 8.49125 6.43003C7.26692 6.59762 6.10877 7.08634 5.1345 7.84651C4.16023 8.60669 3.40456 9.61123 2.94428 10.7581C2.484 11.9049 2.33551 13.1531 2.51392 14.3759C2.69232 15.5987 3.19124 16.7525 3.96 17.72C3.58486 18.6394 3.40959 19.628 3.44583 20.6202C3.48207 21.6125 3.729 22.5857 4.17021 23.4752C4.61141 24.3647 5.23681 25.1502 6.00487 25.7795C6.77293 26.4087 7.66608 26.8674 8.625 27.125C9.21937 27.2877 9.83252 27.3718 10.4487 27.375C10.7906 27.3747 11.1319 27.3492 11.47 27.2988C12.2276 28.2742 13.2298 29.0317 14.3749 29.4946C15.5199 29.9574 16.7671 30.1091 17.9897 29.9342C19.2123 29.7592 20.3668 29.2639 21.3362 28.4986C22.3055 27.7332 23.055 26.725 23.5087 25.5763C24.7331 25.4087 25.8912 24.92 26.8655 24.1598C27.8398 23.3996 28.5954 22.3951 29.0557 21.2483C29.516 20.1014 29.6645 18.8532 29.4861 17.6304C29.3077 16.4076 28.8088 15.2538 28.04 14.2863V14.28ZM22.8562 6.80378C24.1163 7.14064 25.1949 7.95657 25.8619 9.0775C26.5288 10.1984 26.7314 11.5356 26.4262 12.8038C26.3075 12.725 26.1875 12.6488 26.0625 12.5775L20.5 9.36003C20.348 9.27226 20.1755 9.22606 20 9.22606C19.8245 9.22606 19.652 9.27226 19.5 9.36003L14 12.5363V10.2263L19.0625 7.30378C19.6304 6.9739 20.2582 6.75985 20.9093 6.67403C21.5605 6.58821 22.2222 6.63231 22.8562 6.80378ZM18 17.155L16 18.31L14 17.155V14.845L16 13.69L18 14.845V17.155ZM10 9.00003C10.0005 8.02253 10.2874 7.06661 10.8254 6.25048C11.3634 5.43436 12.1289 4.79383 13.027 4.40812C13.9252 4.0224 14.9168 3.90842 15.879 4.08028C16.8413 4.25213 17.7321 4.70227 18.4412 5.37503C18.3162 5.43878 18.1912 5.50003 18.0662 5.57753L12.5 8.78378C12.3481 8.87146 12.222 8.99754 12.1342 9.14936C12.0465 9.30119 12.0002 9.47342 12 9.64878V16L10 14.845V9.00003ZM5.1075 10.8663C5.74463 9.75512 6.78625 8.93293 8.015 8.57128C8.00625 8.71378 8 8.85628 8 9.00003V15.4225C7.99996 15.5981 8.04615 15.7706 8.13392 15.9227C8.22169 16.0747 8.34795 16.201 8.5 16.2888L14 19.4638L12 20.625L6.9375 17.6963C5.78913 17.0332 4.95119 15.9411 4.608 14.6603C4.26481 13.3794 4.44449 12.0147 5.1075 10.8663ZM9.14375 25.1963C7.88365 24.8594 6.80507 24.0435 6.13811 22.9226C5.47115 21.8016 5.26863 20.4644 5.57375 19.1963C5.6925 19.275 5.8125 19.3513 5.9375 19.4225L11.5 22.64C11.652 22.7278 11.8245 22.774 12 22.774C12.1755 22.774 12.348 22.7278 12.5 22.64L18 19.4638V21.7738L12.9375 24.6963C12.3695 25.0262 11.7418 25.2402 11.0907 25.326C10.4395 25.4118 9.77777 25.3678 9.14375 25.1963ZM22 23C22.0005 23.9778 21.7144 24.9343 21.1769 25.7511C20.6394 26.5679 19.8743 27.2092 18.9761 27.5957C18.0779 27.9821 17.0861 28.0967 16.1235 27.9253C15.1608 27.7539 14.2696 27.304 13.56 26.6313C13.685 26.5675 13.81 26.5 13.935 26.4275L19.5 23.2163C19.6519 23.1286 19.778 23.0025 19.8658 22.8507C19.9535 22.6989 19.9998 22.5266 20 22.3513V16L22 17.155V23ZM26.8925 21.1338C26.2554 22.2449 25.2137 23.0671 23.985 23.4288C23.9937 23.2863 24 23.1438 24 23V16.5775C24 16.402 23.9538 16.2295 23.8661 16.0774C23.7783 15.9253 23.6521 15.7991 23.5 15.7113L18 12.5363L20 11.3813L25.0625 14.3038C26.2109 14.9668 27.0488 16.0589 27.392 17.3398C27.7352 18.6207 27.5555 19.9854 26.8925 21.1338Z" fill="#343330"/>
</svg>
